<?xml version="1.0" encoding="UTF-8" standalone="no"?>
<!-- Created with Inkscape (http://www.inkscape.org/) -->

<svg
   width="141.75639mm"
   height="109.00704mm"
   viewBox="0 0 141.75639 109.00704"
   version="1.1"
   id="svg5"
   xmlns:inkscape="http://www.inkscape.org/namespaces/inkscape"
   xmlns:sodipodi="http://sodipodi.sourceforge.net/DTD/sodipodi-0.dtd"
   xmlns="http://www.w3.org/2000/svg"
   xmlns:svg="http://www.w3.org/2000/svg">
  <sodipodi:namedview
     id="namedview7"
     pagecolor="#505050"
     bordercolor="#eeeeee"
     borderopacity="1"
     inkscape:showpageshadow="0"
     inkscape:pageopacity="0"
     inkscape:pagecheckerboard="0"
     inkscape:deskcolor="#505050"
     inkscape:document-units="mm"
     showgrid="false" />
  <defs
     id="defs2">
    <filter
       inkscape:collect="always"
       style="color-interpolation-filters:sRGB"
       id="filter3110"
       x="-0.024031775"
       y="-0.040973466"
       width="1.0480636"
       height="1.0819468">
      <feGaussianBlur
         inkscape:collect="always"
         stdDeviation="1.0960213"
         id="feGaussianBlur3112" />
    </filter>
    <filter
       inkscape:collect="always"
       style="color-interpolation-filters:sRGB"
       id="filter4441"
       x="-0.067950509"
       y="-0.026489248"
       width="1.135901"
       height="1.0529785">
      <feGaussianBlur
         inkscape:collect="always"
         stdDeviation="0.49960273"
         id="feGaussianBlur4443" />
    </filter>
    <filter
       inkscape:collect="always"
       style="color-interpolation-filters:sRGB"
       id="filter5222"
       x="-0.11599999"
       y="-0.044122729"
       width="1.232"
       height="1.0882455">
      <feGaussianBlur
         inkscape:collect="always"
         stdDeviation="0.79017046"
         id="feGaussianBlur5224" />
    </filter>
    <filter
       inkscape:collect="always"
       style="color-interpolation-filters:sRGB"
       id="filter7125"
       x="-0.016020888"
       y="-0.028674843"
       width="1.0320418"
       height="1.0573497">
      <feGaussianBlur
         inkscape:collect="always"
         stdDeviation="0.73066736"
         id="feGaussianBlur7127" />
    </filter>
  </defs>
  <g
     inkscape:label="Camada 1"
     inkscape:groupmode="layer"
     id="layer1"
     transform="translate(-16.632086,-74.413671)">
    <rect
       style="fill:#3b4c35;fill-opacity:1;stroke-width:0.566653"
       id="rect950"
       width="84.636108"
       height="14.735723"
       x="42.969433"
       y="104.71807"
       ry="5.6375942"
       rx="2.9461131" />
    <rect
       style="opacity:0.274568;fill:#000000;fill-opacity:1;stroke-width:1.34506;filter:url(#filter3110)"
       id="rect3108"
       width="109.45721"
       height="64.198891"
       x="30.558882"
       y="105.32815"
       ry="4.5288358"
       rx="3.8101153"
       transform="matrix(0.91840376,0,0,0.95526788,7.5618347,7.6338369)" />
    <g
       id="g7298"
       transform="matrix(0.98489362,-0.13483219,0.18855248,0.9895252,-22.915778,12.839896)">
      <rect
         style="fill:#3f0755;fill-opacity:1;stroke-width:1.55246"
         id="rect234"
         width="132.07521"
         height="70.877914"
         x="19.24988"
         y="104.71807"
         ry="5"
         rx="4.5974293" />
      <g
         id="g7121"
         transform="matrix(1.0092278,-0.06782628,-0.10847702,0.79677417,11.265619,17.587961)">
        <g
           id="g6785"
           transform="matrix(0.90966295,0,0,0.95886235,133.2519,-192.62258)">
          <g
             id="g5262">
            <g
               id="g5230"
               transform="translate(0,83.250232)">
              <path
                 style="color:#000000;fill:#3b9b2a;stroke-width:0.192"
                 d="m -96.290101,215.97082 c 0,0 7.932887,-2.48593 12.036126,-2.98756 4.146443,-0.50692 8.449878,-0.88696 12.531943,0 3.258982,0.70812 5.84397,3.44373 9.102952,4.15185 4.082065,0.88696 12.531943,0 12.531943,0 0,0 8.387552,0.52343 12.531943,0 4.369791,-0.55189 8.416377,-2.84272 12.798593,-3.28526 4.099995,-0.41404 12.347109,0.61756 12.347109,0.61756 H 0.1224516 v 10.64718 10.64718 10.64719 10.64718 H -12.409492 c 0,0 -8.247114,-1.0316 -12.347109,-0.61756 -4.382216,0.44254 -8.428802,2.73337 -12.798593,3.28526 -4.144391,0.52343 -12.531943,0 -12.531943,0 0,0 -8.449878,0.88696 -12.531943,0 -3.258982,-0.70812 -5.84397,-3.44373 -9.102952,-4.15185 -4.082065,-0.88696 -8.3855,-0.50692 -12.531943,0 -4.103239,0.50163 -12.036126,2.98756 -12.036126,2.98756 V 247.91237 237.26518 226.618 Z"
                 id="path5226"
                 sodipodi:nodetypes="caaacaacccccccaacaaaccccc" />
              <path
                 style="color:#000000;fill:#000000"
                 d="m -84.265625,212.88672 c -4.132272,0.50536 -12.121094,3.00976 -12.121094,3.00976 v 0.0742 10.64649 10.64843 10.64649 10.76953 c 0,0 8.004384,-2.50765 12.144532,-3.01367 4.13589,-0.5055 8.428386,-0.88491 12.5,0 3.2586,0.70821 5.842962,3.44413 9.101562,4.15234 4.088791,0.88864 12.552734,0 12.552734,0 0,0 8.396245,0.52402 12.544922,0 4.369225,-0.55188 8.415221,-2.84266 12.796875,-3.28515 4.095641,-0.41361 12.333985,0.61718 12.333985,0.61718 H 0.21875 V 246.4082 235.76172 225.11523 214.37109 h -12.625 c 0,0 -8.25533,-1.03169 -12.359375,-0.61718 -4.382903,0.44268 -8.430285,2.73328 -12.800781,3.28515 -4.140946,0.52289 -12.521485,0 -12.521485,0 0,0 -8.434934,0.88544 -12.509765,0 -3.259208,-0.70821 -5.844308,-3.44413 -9.103516,-4.15234 -4.092645,-0.88931 -8.407275,-0.50841 -12.564453,0 z m 0.02344,0.19336 c 4.135868,-0.50568 8.428307,-0.88455 12.5,0 3.258399,0.70787 5.843163,3.44252 9.101562,4.15039 4.08887,0.88828 12.552734,0 12.552734,0 0,0 8.396207,0.52372 12.544922,0 4.369104,-0.55154 8.415385,-2.84069 12.796875,-3.2832 4.095606,-0.41363 12.333985,0.61523 12.333985,0.61523 H 0.02734375 v 10.55273 10.64649 10.64648 10.55274 H -12.40625 c 0,0 -8.255265,-1.03333 -12.359375,-0.61914 -4.382938,0.44233 -8.430285,2.73328 -12.800781,3.28515 -4.140946,0.52289 -12.521485,0 -12.521485,0 0,0 -8.434855,0.88508 -12.509765,0 -3.259007,-0.70786 -5.844509,-3.44253 -9.103516,-4.15039 -4.092724,-0.88894 -8.407259,-0.50828 -12.564453,0 -4.066304,0.49716 -11.927734,2.96094 -11.927734,2.96094 v -10.52539 -10.64649 -10.64843 -10.57032 c 0,0 7.876877,-2.46864 11.951174,-2.96679 z"
                 id="path5228"
                 sodipodi:nodetypes="accccccaaacaacccccccaacaaaaaacaacccccccaacaaaccccca" />
            </g>
            <path
               style="opacity:0.728693;fill:#000000;fill-opacity:1;stroke:none;stroke-width:0.514;stroke-dasharray:none"
               d="m -9.0835321,331.24743 v 5.55315 h -5.7660559 v 1.46244 h 7.8434489 v -7.01559 z"
               id="path5232" />
            <path
               style="opacity:0.728693;fill:#000000;fill-opacity:1;stroke:none;stroke-width:0.514;stroke-dasharray:none"
               d="m -14.849588,299.76098 v 1.46244 h 5.7660559 v 5.55315 h 2.077393 v -7.01559 z"
               id="path5234" />
            <g
               id="g5240"
               transform="matrix(0.74794692,-0.09639668,0.07805656,0.92368408,-42.376076,93.848026)">
              <path
                 style="opacity:0.728693;fill:#000000;fill-opacity:1;stroke:none;stroke-width:0.514;stroke-dasharray:none"
                 d="m -89.65733,246.51305 v 7.01559 h 9.996805 v -1.46244 h -7.919413 v -5.55315 z"
                 id="path5236" />
              <path
                 style="opacity:0.728693;fill:#000000;fill-opacity:1;stroke:none;stroke-width:0.514;stroke-dasharray:none"
                 d="m -89.65733,215.0266 v 7.01559 h 2.077392 v -5.55315 h 7.919413 v -1.46244 z"
                 id="path5238" />
            </g>
            <path
               id="path5242"
               style="opacity:0.449663;fill:none;stroke:#000000;stroke-width:1.619"
               d="m -34.097146,321.67971 c -2e-6,8.83103 -7.158966,15.98999 -15.989994,15.98999 -8.831028,0 -16.485809,-10.14652 -16.485811,-18.97755 2e-6,-8.83103 7.654783,-13.00243 16.485811,-13.00243 8.831028,0 15.989992,7.15896 15.989994,15.98999 z"
               sodipodi:nodetypes="sssss" />
            <path
               d="m -50.582268,329.30975 c -1.591174,0 -2.826879,-0.30469 -3.707108,-0.91408 -0.863299,-0.62631 -1.294948,-1.47269 -1.294948,-2.53912 0,-0.50782 0.160815,-0.91408 0.482432,-1.21877 0.321623,-0.32162 0.770202,-0.48243 1.34573,-0.48243 0.118495,0.69403 0.279303,1.3542 0.482432,1.98051 0.220059,0.60938 0.541682,1.10875 0.964864,1.49807 0.423188,0.37241 0.998723,0.55861 1.726598,0.55861 v -6.27161 c -1.049499,-0.47397 -1.895868,-0.93948 -2.539115,-1.39652 -0.626311,-0.47396 -1.083351,-0.99025 -1.371122,-1.54886 -0.270835,-0.5586 -0.406258,-1.2103 -0.406258,-1.95512 0,-1.15106 0.389335,-2.0736 1.167993,-2.76763 0.778664,-0.69402 1.828162,-1.10874 3.148502,-1.24417 v -1.98051 h 1.269557 v 1.92973 c 1.523469,0.0338 2.606827,0.32162 3.250067,0.8633 0.643247,0.52475 0.964864,1.18492 0.964864,1.98051 0,0.54168 -0.1862,0.9564 -0.558605,1.24417 -0.355477,0.27084 -0.837908,0.40625 -1.447296,0.40625 0,-0.49089 -0.05922,-0.98178 -0.177738,-1.47268 -0.118488,-0.4909 -0.338546,-0.90562 -0.66017,-1.24417 -0.304694,-0.35547 -0.761734,-0.5586 -1.371122,-0.60939 v 5.91614 c 1.015646,0.44012 1.870484,0.88869 2.564506,1.34573 0.710952,0.45704 1.244166,0.97333 1.599642,1.54886 0.372406,0.55861 0.558606,1.24417 0.558606,2.05668 0,1.26956 -0.41472,2.25982 -1.244166,2.97077 -0.812517,0.71095 -1.972042,1.1426 -3.478588,1.29495 v 3.07233 h -1.269557 z m 0,-15.13312 c -0.677093,0.13542 -1.184916,0.44857 -1.523469,0.93947 -0.338546,0.47397 -0.507823,1.04104 -0.507823,1.70121 0,0.71095 0.169277,1.26109 0.507823,1.65042 0.355476,0.38934 0.863299,0.72788 1.523469,1.01565 z m 1.269557,13.93974 c 0.761735,-0.13542 1.345731,-0.44012 1.751989,-0.91409 0.423188,-0.49089 0.634779,-1.10028 0.634779,-1.82816 0,-0.67709 -0.177738,-1.22723 -0.533214,-1.65042 -0.355476,-0.44011 -0.973325,-0.85483 -1.853554,-1.24417 z"
               id="path5244"
               sodipodi:nodetypes="ccsccccccccsscccccsccscccccscccccccscccccsccc"
               style="font-size:40px;font-family:'Noto Serif';-inkscape-font-specification:'Noto Serif';white-space:pre;opacity:0.728693;stroke-width:1.23317" />
            <path
               id="path5246"
               style="opacity:0.34015;mix-blend-mode:normal;fill:#000000;fill-opacity:1;stroke:none;stroke-width:0.192;stroke-dasharray:none;filter:url(#filter4441)"
               d="m -64.805498,212.16198 v 42.58913 c 0.06966,-0.006 0.13976,-0.0147 0.209289,-0.02 5.571092,0.84933 5.843827,1.73001 9.102804,1.48252 2.519444,-0.19133 5.500243,-1.85541 8.333788,-2.86473 -3.764514,-17.19807 -3.517945,-23.32646 -1.009503,-42.35828 -2.833545,1.00932 -6.878537,2.36221 -8.757585,2.76852 -3.010912,0.65104 -4.410527,-1.86466 -7.669504,-1.61717 -0.06954,0.005 -0.139624,0.014 -0.209289,0.02 z"
               transform="matrix(1,0.29117338,0,0.99300756,-5.8335391,105.10212)"
               sodipodi:nodetypes="cccsccscsc" />
            <path
               id="path5248"
               style="opacity:0.34015;mix-blend-mode:normal;fill:#000000;fill-opacity:1;stroke:none;stroke-width:0.192;stroke-dasharray:none;filter:url(#filter5222)"
               d="m -16.517052,213.79235 v 42.58861 c 2.162523,0.18969 3.816821,0.39171 3.816821,0.39171 h 12.53153472 v -10.6469 -10.64741 -10.64689 -10.64741 H -12.700231 c 0,0 -1.654298,-0.20202 -3.816821,-0.39171 z"
               transform="matrix(0.98620762,0,0,0.98604416,-0.06560079,86.838501)" />
          </g>
          <g
             id="g5268"
             transform="translate(0,83.250232)">
            <path
               style="color:#000000;fill:#3b9b2a;stroke-width:0.192"
               d="m -96.290101,215.97082 c 0,0 7.932887,-2.48593 12.036126,-2.98756 4.146443,-0.50692 8.449878,-0.88696 12.531943,0 3.258982,0.70812 5.84397,3.44373 9.102952,4.15185 4.082065,0.88696 12.531943,0 12.531943,0 0,0 8.387552,0.52343 12.531943,0 4.369791,-0.55189 8.416377,-2.84272 12.798593,-3.28526 4.099995,-0.41404 12.347109,0.61756 12.347109,0.61756 H 0.1224516 v 10.64718 10.64718 10.64719 10.64718 H -12.409492 c 0,0 -8.247114,-1.0316 -12.347109,-0.61756 -4.382216,0.44254 -8.428802,2.73337 -12.798593,3.28526 -4.144391,0.52343 -12.531943,0 -12.531943,0 0,0 -8.449878,0.88696 -12.531943,0 -3.258982,-0.70812 -5.84397,-3.44373 -9.102952,-4.15185 -4.082065,-0.88696 -8.3855,-0.50692 -12.531943,0 -4.103239,0.50163 -12.036126,2.98756 -12.036126,2.98756 V 247.91237 237.26518 226.618 Z"
               id="path5264"
               sodipodi:nodetypes="caaacaacccccccaacaaaccccc" />
            <path
               style="color:#000000;fill:#000000"
               d="m -84.265625,212.88672 c -4.132272,0.50536 -12.121094,3.00976 -12.121094,3.00976 v 0.0742 10.64649 10.64843 10.64649 10.76953 c 0,0 8.004384,-2.50765 12.144532,-3.01367 4.13589,-0.5055 8.428386,-0.88491 12.5,0 3.2586,0.70821 5.842962,3.44413 9.101562,4.15234 4.088791,0.88864 12.552734,0 12.552734,0 0,0 8.396245,0.52402 12.544922,0 4.369225,-0.55188 8.415221,-2.84266 12.796875,-3.28515 4.095641,-0.41361 12.333985,0.61718 12.333985,0.61718 H 0.21875 V 246.4082 235.76172 225.11523 214.37109 h -12.625 c 0,0 -8.25533,-1.03169 -12.359375,-0.61718 -4.382903,0.44268 -8.430285,2.73328 -12.800781,3.28515 -4.140946,0.52289 -12.521485,0 -12.521485,0 0,0 -8.434934,0.88544 -12.509765,0 -3.259208,-0.70821 -5.844308,-3.44413 -9.103516,-4.15234 -4.092645,-0.88931 -8.407275,-0.50841 -12.564453,0 z m 0.02344,0.19336 c 4.135868,-0.50568 8.428307,-0.88455 12.5,0 3.258399,0.70787 5.843163,3.44252 9.101562,4.15039 4.08887,0.88828 12.552734,0 12.552734,0 0,0 8.396207,0.52372 12.544922,0 4.369104,-0.55154 8.415385,-2.84069 12.796875,-3.2832 4.095606,-0.41363 12.333985,0.61523 12.333985,0.61523 H 0.02734375 v 10.55273 10.64649 10.64648 10.55274 H -12.40625 c 0,0 -8.255265,-1.03333 -12.359375,-0.61914 -4.382938,0.44233 -8.430285,2.73328 -12.800781,3.28515 -4.140946,0.52289 -12.521485,0 -12.521485,0 0,0 -8.434855,0.88508 -12.509765,0 -3.259007,-0.70786 -5.844509,-3.44253 -9.103516,-4.15039 -4.092724,-0.88894 -8.407259,-0.50828 -12.564453,0 -4.066304,0.49716 -11.927734,2.96094 -11.927734,2.96094 v -10.52539 -10.64649 -10.64843 -10.57032 c 0,0 7.876877,-2.46864 11.951174,-2.96679 z"
               id="path5266"
               sodipodi:nodetypes="accccccaaacaacccccccaacaaaaaacaacccccccaacaaaccccca" />
          </g>
          <path
             style="opacity:0.728693;fill:#000000;fill-opacity:1;stroke:none;stroke-width:0.514;stroke-dasharray:none"
             d="m -9.0835321,331.24743 v 5.55315 h -5.7660559 v 1.46244 h 7.8434489 v -7.01559 z"
             id="path5270" />
          <path
             style="opacity:0.728693;fill:#000000;fill-opacity:1;stroke:none;stroke-width:0.514;stroke-dasharray:none"
             d="m -14.849588,299.76098 v 1.46244 h 5.7660559 v 5.55315 h 2.077393 v -7.01559 z"
             id="path5272" />
          <g
             id="g5278"
             transform="matrix(0.74794692,-0.09639668,0.07805656,0.92368408,-42.376076,93.848026)">
            <path
               style="opacity:0.728693;fill:#000000;fill-opacity:1;stroke:none;stroke-width:0.514;stroke-dasharray:none"
               d="m -89.65733,246.51305 v 7.01559 h 9.996805 v -1.46244 h -7.919413 v -5.55315 z"
               id="path5274" />
            <path
               style="opacity:0.728693;fill:#000000;fill-opacity:1;stroke:none;stroke-width:0.514;stroke-dasharray:none"
               d="m -89.65733,215.0266 v 7.01559 h 2.077392 v -5.55315 h 7.919413 v -1.46244 z"
               id="path5276" />
          </g>
          <path
             id="path5280"
             style="opacity:0.449663;fill:none;stroke:#000000;stroke-width:1.619"
             d="m -34.097146,321.67971 c -2e-6,8.83103 -7.158966,15.98999 -15.989994,15.98999 -8.831028,0 -16.485809,-10.14652 -16.485811,-18.97755 2e-6,-8.83103 7.654783,-13.00243 16.485811,-13.00243 8.831028,0 15.989992,7.15896 15.989994,15.98999 z"
             sodipodi:nodetypes="sssss" />
          <path
             d="m -50.582268,329.30975 c -1.591174,0 -2.826879,-0.30469 -3.707108,-0.91408 -0.863299,-0.62631 -1.294948,-1.47269 -1.294948,-2.53912 0,-0.50782 0.160815,-0.91408 0.482432,-1.21877 0.321623,-0.32162 0.770202,-0.48243 1.34573,-0.48243 0.118495,0.69403 0.279303,1.3542 0.482432,1.98051 0.220059,0.60938 0.541682,1.10875 0.964864,1.49807 0.423188,0.37241 0.998723,0.55861 1.726598,0.55861 v -6.27161 c -1.049499,-0.47397 -1.895868,-0.93948 -2.539115,-1.39652 -0.626311,-0.47396 -1.083351,-0.99025 -1.371122,-1.54886 -0.270835,-0.5586 -0.406258,-1.2103 -0.406258,-1.95512 0,-1.15106 0.389335,-2.0736 1.167993,-2.76763 0.778664,-0.69402 1.828162,-1.10874 3.148502,-1.24417 v -1.98051 h 1.269557 v 1.92973 c 1.523469,0.0338 2.606827,0.32162 3.250067,0.8633 0.643247,0.52475 0.964864,1.18492 0.964864,1.98051 0,0.54168 -0.1862,0.9564 -0.558605,1.24417 -0.355477,0.27084 -0.837908,0.40625 -1.447296,0.40625 0,-0.49089 -0.05922,-0.98178 -0.177738,-1.47268 -0.118488,-0.4909 -0.338546,-0.90562 -0.66017,-1.24417 -0.304694,-0.35547 -0.761734,-0.5586 -1.371122,-0.60939 v 5.91614 c 1.015646,0.44012 1.870484,0.88869 2.564506,1.34573 0.710952,0.45704 1.244166,0.97333 1.599642,1.54886 0.372406,0.55861 0.558606,1.24417 0.558606,2.05668 0,1.26956 -0.41472,2.25982 -1.244166,2.97077 -0.812517,0.71095 -1.972042,1.1426 -3.478588,1.29495 v 3.07233 h -1.269557 z m 0,-15.13312 c -0.677093,0.13542 -1.184916,0.44857 -1.523469,0.93947 -0.338546,0.47397 -0.507823,1.04104 -0.507823,1.70121 0,0.71095 0.169277,1.26109 0.507823,1.65042 0.355476,0.38934 0.863299,0.72788 1.523469,1.01565 z m 1.269557,13.93974 c 0.761735,-0.13542 1.345731,-0.44012 1.751989,-0.91409 0.423188,-0.49089 0.634779,-1.10028 0.634779,-1.82816 0,-0.67709 -0.177738,-1.22723 -0.533214,-1.65042 -0.355476,-0.44011 -0.973325,-0.85483 -1.853554,-1.24417 z"
             id="path5282"
             sodipodi:nodetypes="ccsccccccccsscccccsccscccccscccccccscccccsccc"
             style="font-size:40px;font-family:'Noto Serif';-inkscape-font-specification:'Noto Serif';white-space:pre;opacity:0.728693;stroke-width:1.23317" />
          <path
             id="path5284"
             style="opacity:0.34015;mix-blend-mode:normal;fill:#000000;fill-opacity:1;stroke:none;stroke-width:0.192;stroke-dasharray:none;filter:url(#filter4441)"
             d="m -64.805498,212.16198 v 42.58913 c 0.06966,-0.006 0.13976,-0.0147 0.209289,-0.02 5.571092,0.84933 5.843827,1.73001 9.102804,1.48252 2.519444,-0.19133 5.500243,-1.85541 8.333788,-2.86473 -3.764514,-17.19807 -3.517945,-23.32646 -1.009503,-42.35828 -2.833545,1.00932 -6.878537,2.36221 -8.757585,2.76852 -3.010912,0.65104 -4.410527,-1.86466 -7.669504,-1.61717 -0.06954,0.005 -0.139624,0.014 -0.209289,0.02 z"
             transform="matrix(1,0.29117338,0,0.99300756,-5.8335391,105.10212)"
             sodipodi:nodetypes="cccsccscsc" />
          <path
             id="path5286"
             style="opacity:0.34015;mix-blend-mode:normal;fill:#000000;fill-opacity:1;stroke:none;stroke-width:0.192;stroke-dasharray:none;filter:url(#filter5222)"
             d="m -16.517052,213.79235 v 42.58861 c 2.162523,0.18969 3.816821,0.39171 3.816821,0.39171 h 12.53153472 v -10.6469 -10.64741 -10.64689 -10.64741 H -12.700231 c 0,0 -1.654298,-0.20202 -3.816821,-0.39171 z"
             transform="matrix(0.98620762,0,0,0.98604416,-0.06560079,86.838501)" />
        </g>
        <g
           id="g6889"
           transform="translate(136.35545,-196.19951)">
          <g
             id="g6863">
            <g
               id="g6843"
               transform="translate(0,83.250232)">
              <path
                 style="color:#000000;fill:#3b9b2a;stroke-width:0.192"
                 d="m -96.290101,215.97082 c 0,0 7.932887,-2.48593 12.036126,-2.98756 4.146443,-0.50692 8.449878,-0.88696 12.531943,0 3.258982,0.70812 5.84397,3.44373 9.102952,4.15185 4.082065,0.88696 12.531943,0 12.531943,0 0,0 8.387552,0.52343 12.531943,0 4.369791,-0.55189 8.416377,-2.84272 12.798593,-3.28526 4.099995,-0.41404 12.347109,0.61756 12.347109,0.61756 H 0.1224516 v 10.64718 10.64718 10.64719 10.64718 H -12.409492 c 0,0 -8.247114,-1.0316 -12.347109,-0.61756 -4.382216,0.44254 -8.428802,2.73337 -12.798593,3.28526 -4.144391,0.52343 -12.531943,0 -12.531943,0 0,0 -8.449878,0.88696 -12.531943,0 -3.258982,-0.70812 -5.84397,-3.44373 -9.102952,-4.15185 -4.082065,-0.88696 -8.3855,-0.50692 -12.531943,0 -4.103239,0.50163 -12.036126,2.98756 -12.036126,2.98756 V 247.91237 237.26518 226.618 Z"
                 id="path6839"
                 sodipodi:nodetypes="caaacaacccccccaacaaaccccc" />
              <path
                 style="color:#000000;fill:#000000"
                 d="m -84.265625,212.88672 c -4.132272,0.50536 -12.121094,3.00976 -12.121094,3.00976 v 0.0742 10.64649 10.64843 10.64649 10.76953 c 0,0 8.004384,-2.50765 12.144532,-3.01367 4.13589,-0.5055 8.428386,-0.88491 12.5,0 3.2586,0.70821 5.842962,3.44413 9.101562,4.15234 4.088791,0.88864 12.552734,0 12.552734,0 0,0 8.396245,0.52402 12.544922,0 4.369225,-0.55188 8.415221,-2.84266 12.796875,-3.28515 4.095641,-0.41361 12.333985,0.61718 12.333985,0.61718 H 0.21875 V 246.4082 235.76172 225.11523 214.37109 h -12.625 c 0,0 -8.25533,-1.03169 -12.359375,-0.61718 -4.382903,0.44268 -8.430285,2.73328 -12.800781,3.28515 -4.140946,0.52289 -12.521485,0 -12.521485,0 0,0 -8.434934,0.88544 -12.509765,0 -3.259208,-0.70821 -5.844308,-3.44413 -9.103516,-4.15234 -4.092645,-0.88931 -8.407275,-0.50841 -12.564453,0 z m 0.02344,0.19336 c 4.135868,-0.50568 8.428307,-0.88455 12.5,0 3.258399,0.70787 5.843163,3.44252 9.101562,4.15039 4.08887,0.88828 12.552734,0 12.552734,0 0,0 8.396207,0.52372 12.544922,0 4.369104,-0.55154 8.415385,-2.84069 12.796875,-3.2832 4.095606,-0.41363 12.333985,0.61523 12.333985,0.61523 H 0.02734375 v 10.55273 10.64649 10.64648 10.55274 H -12.40625 c 0,0 -8.255265,-1.03333 -12.359375,-0.61914 -4.382938,0.44233 -8.430285,2.73328 -12.800781,3.28515 -4.140946,0.52289 -12.521485,0 -12.521485,0 0,0 -8.434855,0.88508 -12.509765,0 -3.259007,-0.70786 -5.844509,-3.44253 -9.103516,-4.15039 -4.092724,-0.88894 -8.407259,-0.50828 -12.564453,0 -4.066304,0.49716 -11.927734,2.96094 -11.927734,2.96094 v -10.52539 -10.64649 -10.64843 -10.57032 c 0,0 7.876877,-2.46864 11.951174,-2.96679 z"
                 id="path6841"
                 sodipodi:nodetypes="accccccaaacaacccccccaacaaaaaacaacccccccaacaaaccccca" />
            </g>
            <path
               style="opacity:0.728693;fill:#000000;fill-opacity:1;stroke:none;stroke-width:0.514;stroke-dasharray:none"
               d="m -9.0835321,331.24743 v 5.55315 h -5.7660559 v 1.46244 h 7.8434489 v -7.01559 z"
               id="path6845" />
            <path
               style="opacity:0.728693;fill:#000000;fill-opacity:1;stroke:none;stroke-width:0.514;stroke-dasharray:none"
               d="m -14.849588,299.76098 v 1.46244 h 5.7660559 v 5.55315 h 2.077393 v -7.01559 z"
               id="path6847" />
            <g
               id="g6853"
               transform="matrix(0.74794692,-0.09639668,0.07805656,0.92368408,-42.376076,93.848026)">
              <path
                 style="opacity:0.728693;fill:#000000;fill-opacity:1;stroke:none;stroke-width:0.514;stroke-dasharray:none"
                 d="m -89.65733,246.51305 v 7.01559 h 9.996805 v -1.46244 h -7.919413 v -5.55315 z"
                 id="path6849" />
              <path
                 style="opacity:0.728693;fill:#000000;fill-opacity:1;stroke:none;stroke-width:0.514;stroke-dasharray:none"
                 d="m -89.65733,215.0266 v 7.01559 h 2.077392 v -5.55315 h 7.919413 v -1.46244 z"
                 id="path6851" />
            </g>
            <path
               id="path6855"
               style="opacity:0.449663;fill:none;stroke:#000000;stroke-width:1.619"
               d="m -34.097146,321.67971 c -2e-6,8.83103 -7.158966,15.98999 -15.989994,15.98999 -8.831028,0 -16.485809,-10.14652 -16.485811,-18.97755 2e-6,-8.83103 7.654783,-13.00243 16.485811,-13.00243 8.831028,0 15.989992,7.15896 15.989994,15.98999 z"
               sodipodi:nodetypes="sssss" />
            <path
               d="m -50.582268,329.30975 c -1.591174,0 -2.826879,-0.30469 -3.707108,-0.91408 -0.863299,-0.62631 -1.294948,-1.47269 -1.294948,-2.53912 0,-0.50782 0.160815,-0.91408 0.482432,-1.21877 0.321623,-0.32162 0.770202,-0.48243 1.34573,-0.48243 0.118495,0.69403 0.279303,1.3542 0.482432,1.98051 0.220059,0.60938 0.541682,1.10875 0.964864,1.49807 0.423188,0.37241 0.998723,0.55861 1.726598,0.55861 v -6.27161 c -1.049499,-0.47397 -1.895868,-0.93948 -2.539115,-1.39652 -0.626311,-0.47396 -1.083351,-0.99025 -1.371122,-1.54886 -0.270835,-0.5586 -0.406258,-1.2103 -0.406258,-1.95512 0,-1.15106 0.389335,-2.0736 1.167993,-2.76763 0.778664,-0.69402 1.828162,-1.10874 3.148502,-1.24417 v -1.98051 h 1.269557 v 1.92973 c 1.523469,0.0338 2.606827,0.32162 3.250067,0.8633 0.643247,0.52475 0.964864,1.18492 0.964864,1.98051 0,0.54168 -0.1862,0.9564 -0.558605,1.24417 -0.355477,0.27084 -0.837908,0.40625 -1.447296,0.40625 0,-0.49089 -0.05922,-0.98178 -0.177738,-1.47268 -0.118488,-0.4909 -0.338546,-0.90562 -0.66017,-1.24417 -0.304694,-0.35547 -0.761734,-0.5586 -1.371122,-0.60939 v 5.91614 c 1.015646,0.44012 1.870484,0.88869 2.564506,1.34573 0.710952,0.45704 1.244166,0.97333 1.599642,1.54886 0.372406,0.55861 0.558606,1.24417 0.558606,2.05668 0,1.26956 -0.41472,2.25982 -1.244166,2.97077 -0.812517,0.71095 -1.972042,1.1426 -3.478588,1.29495 v 3.07233 h -1.269557 z m 0,-15.13312 c -0.677093,0.13542 -1.184916,0.44857 -1.523469,0.93947 -0.338546,0.47397 -0.507823,1.04104 -0.507823,1.70121 0,0.71095 0.169277,1.26109 0.507823,1.65042 0.355476,0.38934 0.863299,0.72788 1.523469,1.01565 z m 1.269557,13.93974 c 0.761735,-0.13542 1.345731,-0.44012 1.751989,-0.91409 0.423188,-0.49089 0.634779,-1.10028 0.634779,-1.82816 0,-0.67709 -0.177738,-1.22723 -0.533214,-1.65042 -0.355476,-0.44011 -0.973325,-0.85483 -1.853554,-1.24417 z"
               id="path6857"
               sodipodi:nodetypes="ccsccccccccsscccccsccscccccscccccccscccccsccc"
               style="font-size:40px;font-family:'Noto Serif';-inkscape-font-specification:'Noto Serif';white-space:pre;opacity:0.728693;stroke-width:1.23317" />
            <path
               id="path6859"
               style="opacity:0.34015;mix-blend-mode:normal;fill:#000000;fill-opacity:1;stroke:none;stroke-width:0.192;stroke-dasharray:none;filter:url(#filter4441)"
               d="m -64.805498,212.16198 v 42.58913 c 0.06966,-0.006 0.13976,-0.0147 0.209289,-0.02 5.571092,0.84933 5.843827,1.73001 9.102804,1.48252 2.519444,-0.19133 5.500243,-1.85541 8.333788,-2.86473 -3.764514,-17.19807 -3.517945,-23.32646 -1.009503,-42.35828 -2.833545,1.00932 -6.878537,2.36221 -8.757585,2.76852 -3.010912,0.65104 -4.410527,-1.86466 -7.669504,-1.61717 -0.06954,0.005 -0.139624,0.014 -0.209289,0.02 z"
               transform="matrix(1,0.29117338,0,0.99300756,-5.8335391,105.10212)"
               sodipodi:nodetypes="cccsccscsc" />
            <path
               id="path6861"
               style="opacity:0.34015;mix-blend-mode:normal;fill:#000000;fill-opacity:1;stroke:none;stroke-width:0.192;stroke-dasharray:none;filter:url(#filter5222)"
               d="m -16.517052,213.79235 v 42.58861 c 2.162523,0.18969 3.816821,0.39171 3.816821,0.39171 h 12.53153472 v -10.6469 -10.64741 -10.64689 -10.64741 H -12.700231 c 0,0 -1.654298,-0.20202 -3.816821,-0.39171 z"
               transform="matrix(0.98620762,0,0,0.98604416,-0.06560079,86.838501)" />
          </g>
          <g
             id="g6869"
             transform="translate(0,83.250232)">
            <path
               style="color:#000000;fill:#3b9b2a;stroke-width:0.192"
               d="m -96.290101,215.97082 c 0,0 7.932887,-2.48593 12.036126,-2.98756 4.146443,-0.50692 8.449878,-0.88696 12.531943,0 3.258982,0.70812 5.84397,3.44373 9.102952,4.15185 4.082065,0.88696 12.531943,0 12.531943,0 0,0 8.387552,0.52343 12.531943,0 4.369791,-0.55189 8.416377,-2.84272 12.798593,-3.28526 4.099995,-0.41404 12.347109,0.61756 12.347109,0.61756 H 0.1224516 v 10.64718 10.64718 10.64719 10.64718 H -12.409492 c 0,0 -8.247114,-1.0316 -12.347109,-0.61756 -4.382216,0.44254 -8.428802,2.73337 -12.798593,3.28526 -4.144391,0.52343 -12.531943,0 -12.531943,0 0,0 -8.449878,0.88696 -12.531943,0 -3.258982,-0.70812 -5.84397,-3.44373 -9.102952,-4.15185 -4.082065,-0.88696 -8.3855,-0.50692 -12.531943,0 -4.103239,0.50163 -12.036126,2.98756 -12.036126,2.98756 V 247.91237 237.26518 226.618 Z"
               id="path6865"
               sodipodi:nodetypes="caaacaacccccccaacaaaccccc" />
            <path
               style="color:#000000;fill:#000000"
               d="m -84.265625,212.88672 c -4.132272,0.50536 -12.121094,3.00976 -12.121094,3.00976 v 0.0742 10.64649 10.64843 10.64649 10.76953 c 0,0 8.004384,-2.50765 12.144532,-3.01367 4.13589,-0.5055 8.428386,-0.88491 12.5,0 3.2586,0.70821 5.842962,3.44413 9.101562,4.15234 4.088791,0.88864 12.552734,0 12.552734,0 0,0 8.396245,0.52402 12.544922,0 4.369225,-0.55188 8.415221,-2.84266 12.796875,-3.28515 4.095641,-0.41361 12.333985,0.61718 12.333985,0.61718 H 0.21875 V 246.4082 235.76172 225.11523 214.37109 h -12.625 c 0,0 -8.25533,-1.03169 -12.359375,-0.61718 -4.382903,0.44268 -8.430285,2.73328 -12.800781,3.28515 -4.140946,0.52289 -12.521485,0 -12.521485,0 0,0 -8.434934,0.88544 -12.509765,0 -3.259208,-0.70821 -5.844308,-3.44413 -9.103516,-4.15234 -4.092645,-0.88931 -8.407275,-0.50841 -12.564453,0 z m 0.02344,0.19336 c 4.135868,-0.50568 8.428307,-0.88455 12.5,0 3.258399,0.70787 5.843163,3.44252 9.101562,4.15039 4.08887,0.88828 12.552734,0 12.552734,0 0,0 8.396207,0.52372 12.544922,0 4.369104,-0.55154 8.415385,-2.84069 12.796875,-3.2832 4.095606,-0.41363 12.333985,0.61523 12.333985,0.61523 H 0.02734375 v 10.55273 10.64649 10.64648 10.55274 H -12.40625 c 0,0 -8.255265,-1.03333 -12.359375,-0.61914 -4.382938,0.44233 -8.430285,2.73328 -12.800781,3.28515 -4.140946,0.52289 -12.521485,0 -12.521485,0 0,0 -8.434855,0.88508 -12.509765,0 -3.259007,-0.70786 -5.844509,-3.44253 -9.103516,-4.15039 -4.092724,-0.88894 -8.407259,-0.50828 -12.564453,0 -4.066304,0.49716 -11.927734,2.96094 -11.927734,2.96094 v -10.52539 -10.64649 -10.64843 -10.57032 c 0,0 7.876877,-2.46864 11.951174,-2.96679 z"
               id="path6867"
               sodipodi:nodetypes="accccccaaacaacccccccaacaaaaaacaacccccccaacaaaccccca" />
          </g>
          <path
             style="opacity:0.728693;fill:#000000;fill-opacity:1;stroke:none;stroke-width:0.514;stroke-dasharray:none"
             d="m -9.0835321,331.24743 v 5.55315 h -5.7660559 v 1.46244 h 7.8434489 v -7.01559 z"
             id="path6871" />
          <path
             style="opacity:0.728693;fill:#000000;fill-opacity:1;stroke:none;stroke-width:0.514;stroke-dasharray:none"
             d="m -14.849588,299.76098 v 1.46244 h 5.7660559 v 5.55315 h 2.077393 v -7.01559 z"
             id="path6873" />
          <g
             id="g6879"
             transform="matrix(0.74794692,-0.09639668,0.07805656,0.92368408,-42.376076,93.848026)">
            <path
               style="opacity:0.728693;fill:#000000;fill-opacity:1;stroke:none;stroke-width:0.514;stroke-dasharray:none"
               d="m -89.65733,246.51305 v 7.01559 h 9.996805 v -1.46244 h -7.919413 v -5.55315 z"
               id="path6875" />
            <path
               style="opacity:0.728693;fill:#000000;fill-opacity:1;stroke:none;stroke-width:0.514;stroke-dasharray:none"
               d="m -89.65733,215.0266 v 7.01559 h 2.077392 v -5.55315 h 7.919413 v -1.46244 z"
               id="path6877" />
          </g>
          <path
             id="path6881"
             style="opacity:0.449663;fill:none;stroke:#000000;stroke-width:1.619"
             d="m -34.097146,321.67971 c -2e-6,8.83103 -7.158966,15.98999 -15.989994,15.98999 -8.831028,0 -16.485809,-10.14652 -16.485811,-18.97755 2e-6,-8.83103 7.654783,-13.00243 16.485811,-13.00243 8.831028,0 15.989992,7.15896 15.989994,15.98999 z"
             sodipodi:nodetypes="sssss" />
          <path
             d="m -50.582268,329.30975 c -1.591174,0 -2.826879,-0.30469 -3.707108,-0.91408 -0.863299,-0.62631 -1.294948,-1.47269 -1.294948,-2.53912 0,-0.50782 0.160815,-0.91408 0.482432,-1.21877 0.321623,-0.32162 0.770202,-0.48243 1.34573,-0.48243 0.118495,0.69403 0.279303,1.3542 0.482432,1.98051 0.220059,0.60938 0.541682,1.10875 0.964864,1.49807 0.423188,0.37241 0.998723,0.55861 1.726598,0.55861 v -6.27161 c -1.049499,-0.47397 -1.895868,-0.93948 -2.539115,-1.39652 -0.626311,-0.47396 -1.083351,-0.99025 -1.371122,-1.54886 -0.270835,-0.5586 -0.406258,-1.2103 -0.406258,-1.95512 0,-1.15106 0.389335,-2.0736 1.167993,-2.76763 0.778664,-0.69402 1.828162,-1.10874 3.148502,-1.24417 v -1.98051 h 1.269557 v 1.92973 c 1.523469,0.0338 2.606827,0.32162 3.250067,0.8633 0.643247,0.52475 0.964864,1.18492 0.964864,1.98051 0,0.54168 -0.1862,0.9564 -0.558605,1.24417 -0.355477,0.27084 -0.837908,0.40625 -1.447296,0.40625 0,-0.49089 -0.05922,-0.98178 -0.177738,-1.47268 -0.118488,-0.4909 -0.338546,-0.90562 -0.66017,-1.24417 -0.304694,-0.35547 -0.761734,-0.5586 -1.371122,-0.60939 v 5.91614 c 1.015646,0.44012 1.870484,0.88869 2.564506,1.34573 0.710952,0.45704 1.244166,0.97333 1.599642,1.54886 0.372406,0.55861 0.558606,1.24417 0.558606,2.05668 0,1.26956 -0.41472,2.25982 -1.244166,2.97077 -0.812517,0.71095 -1.972042,1.1426 -3.478588,1.29495 v 3.07233 h -1.269557 z m 0,-15.13312 c -0.677093,0.13542 -1.184916,0.44857 -1.523469,0.93947 -0.338546,0.47397 -0.507823,1.04104 -0.507823,1.70121 0,0.71095 0.169277,1.26109 0.507823,1.65042 0.355476,0.38934 0.863299,0.72788 1.523469,1.01565 z m 1.269557,13.93974 c 0.761735,-0.13542 1.345731,-0.44012 1.751989,-0.91409 0.423188,-0.49089 0.634779,-1.10028 0.634779,-1.82816 0,-0.67709 -0.177738,-1.22723 -0.533214,-1.65042 -0.355476,-0.44011 -0.973325,-0.85483 -1.853554,-1.24417 z"
             id="path6883"
             sodipodi:nodetypes="ccsccccccccsscccccsccscccccscccccccscccccsccc"
             style="font-size:40px;font-family:'Noto Serif';-inkscape-font-specification:'Noto Serif';white-space:pre;opacity:0.728693;stroke-width:1.23317" />
          <path
             id="path6885"
             style="opacity:0.34015;mix-blend-mode:normal;fill:#000000;fill-opacity:1;stroke:none;stroke-width:0.192;stroke-dasharray:none;filter:url(#filter4441)"
             d="m -64.805498,212.16198 v 42.58913 c 0.06966,-0.006 0.13976,-0.0147 0.209289,-0.02 5.571092,0.84933 5.843827,1.73001 9.102804,1.48252 2.519444,-0.19133 5.500243,-1.85541 8.333788,-2.86473 -3.764514,-17.19807 -3.517945,-23.32646 -1.009503,-42.35828 -2.833545,1.00932 -6.878537,2.36221 -8.757585,2.76852 -3.010912,0.65104 -4.410527,-1.86466 -7.669504,-1.61717 -0.06954,0.005 -0.139624,0.014 -0.209289,0.02 z"
             transform="matrix(1,0.29117338,0,0.99300756,-5.8335391,105.10212)"
             sodipodi:nodetypes="cccsccscsc" />
          <path
             id="path6887"
             style="opacity:0.34015;mix-blend-mode:normal;fill:#000000;fill-opacity:1;stroke:none;stroke-width:0.192;stroke-dasharray:none;filter:url(#filter5222)"
             d="m -16.517052,213.79235 v 42.58861 c 2.162523,0.18969 3.816821,0.39171 3.816821,0.39171 h 12.53153472 v -10.6469 -10.64741 -10.64689 -10.64741 H -12.700231 c 0,0 -1.654298,-0.20202 -3.816821,-0.39171 z"
             transform="matrix(0.98620762,0,0,0.98604416,-0.06560079,86.838501)" />
        </g>
        <g
           id="g7041"
           transform="translate(137.87818,-189.42058)">
          <g
             id="g7015">
            <g
               id="g6995"
               transform="translate(0,83.250232)">
              <path
                 style="color:#000000;fill:#3b9b2a;stroke-width:0.192"
                 d="m -96.290101,215.97082 c 0,0 7.932887,-2.48593 12.036126,-2.98756 4.146443,-0.50692 8.449878,-0.88696 12.531943,0 3.258982,0.70812 5.84397,3.44373 9.102952,4.15185 4.082065,0.88696 12.531943,0 12.531943,0 0,0 8.387552,0.52343 12.531943,0 4.369791,-0.55189 8.416377,-2.84272 12.798593,-3.28526 4.099995,-0.41404 12.347109,0.61756 12.347109,0.61756 H 0.1224516 v 10.64718 10.64718 10.64719 10.64718 H -12.409492 c 0,0 -8.247114,-1.0316 -12.347109,-0.61756 -4.382216,0.44254 -8.428802,2.73337 -12.798593,3.28526 -4.144391,0.52343 -12.531943,0 -12.531943,0 0,0 -8.449878,0.88696 -12.531943,0 -3.258982,-0.70812 -5.84397,-3.44373 -9.102952,-4.15185 -4.082065,-0.88696 -8.3855,-0.50692 -12.531943,0 -4.103239,0.50163 -12.036126,2.98756 -12.036126,2.98756 V 247.91237 237.26518 226.618 Z"
                 id="path6991"
                 sodipodi:nodetypes="caaacaacccccccaacaaaccccc" />
              <path
                 style="color:#000000;fill:#000000"
                 d="m -84.265625,212.88672 c -4.132272,0.50536 -12.121094,3.00976 -12.121094,3.00976 v 0.0742 10.64649 10.64843 10.64649 10.76953 c 0,0 8.004384,-2.50765 12.144532,-3.01367 4.13589,-0.5055 8.428386,-0.88491 12.5,0 3.2586,0.70821 5.842962,3.44413 9.101562,4.15234 4.088791,0.88864 12.552734,0 12.552734,0 0,0 8.396245,0.52402 12.544922,0 4.369225,-0.55188 8.415221,-2.84266 12.796875,-3.28515 4.095641,-0.41361 12.333985,0.61718 12.333985,0.61718 H 0.21875 V 246.4082 235.76172 225.11523 214.37109 h -12.625 c 0,0 -8.25533,-1.03169 -12.359375,-0.61718 -4.382903,0.44268 -8.430285,2.73328 -12.800781,3.28515 -4.140946,0.52289 -12.521485,0 -12.521485,0 0,0 -8.434934,0.88544 -12.509765,0 -3.259208,-0.70821 -5.844308,-3.44413 -9.103516,-4.15234 -4.092645,-0.88931 -8.407275,-0.50841 -12.564453,0 z m 0.02344,0.19336 c 4.135868,-0.50568 8.428307,-0.88455 12.5,0 3.258399,0.70787 5.843163,3.44252 9.101562,4.15039 4.08887,0.88828 12.552734,0 12.552734,0 0,0 8.396207,0.52372 12.544922,0 4.369104,-0.55154 8.415385,-2.84069 12.796875,-3.2832 4.095606,-0.41363 12.333985,0.61523 12.333985,0.61523 H 0.02734375 v 10.55273 10.64649 10.64648 10.55274 H -12.40625 c 0,0 -8.255265,-1.03333 -12.359375,-0.61914 -4.382938,0.44233 -8.430285,2.73328 -12.800781,3.28515 -4.140946,0.52289 -12.521485,0 -12.521485,0 0,0 -8.434855,0.88508 -12.509765,0 -3.259007,-0.70786 -5.844509,-3.44253 -9.103516,-4.15039 -4.092724,-0.88894 -8.407259,-0.50828 -12.564453,0 -4.066304,0.49716 -11.927734,2.96094 -11.927734,2.96094 v -10.52539 -10.64649 -10.64843 -10.57032 c 0,0 7.876877,-2.46864 11.951174,-2.96679 z"
                 id="path6993"
                 sodipodi:nodetypes="accccccaaacaacccccccaacaaaaaacaacccccccaacaaaccccca" />
            </g>
            <path
               style="opacity:0.728693;fill:#000000;fill-opacity:1;stroke:none;stroke-width:0.514;stroke-dasharray:none"
               d="m -9.0835321,331.24743 v 5.55315 h -5.7660559 v 1.46244 h 7.8434489 v -7.01559 z"
               id="path6997" />
            <path
               style="opacity:0.728693;fill:#000000;fill-opacity:1;stroke:none;stroke-width:0.514;stroke-dasharray:none"
               d="m -14.849588,299.76098 v 1.46244 h 5.7660559 v 5.55315 h 2.077393 v -7.01559 z"
               id="path6999" />
            <g
               id="g7005"
               transform="matrix(0.74794692,-0.09639668,0.07805656,0.92368408,-42.376076,93.848026)">
              <path
                 style="opacity:0.728693;fill:#000000;fill-opacity:1;stroke:none;stroke-width:0.514;stroke-dasharray:none"
                 d="m -89.65733,246.51305 v 7.01559 h 9.996805 v -1.46244 h -7.919413 v -5.55315 z"
                 id="path7001" />
              <path
                 style="opacity:0.728693;fill:#000000;fill-opacity:1;stroke:none;stroke-width:0.514;stroke-dasharray:none"
                 d="m -89.65733,215.0266 v 7.01559 h 2.077392 v -5.55315 h 7.919413 v -1.46244 z"
                 id="path7003" />
            </g>
            <path
               id="path7007"
               style="opacity:0.449663;fill:none;stroke:#000000;stroke-width:1.619"
               d="m -34.097146,321.67971 c -2e-6,8.83103 -7.158966,15.98999 -15.989994,15.98999 -8.831028,0 -16.485809,-10.14652 -16.485811,-18.97755 2e-6,-8.83103 7.654783,-13.00243 16.485811,-13.00243 8.831028,0 15.989992,7.15896 15.989994,15.98999 z"
               sodipodi:nodetypes="sssss" />
            <path
               d="m -50.582268,329.30975 c -1.591174,0 -2.826879,-0.30469 -3.707108,-0.91408 -0.863299,-0.62631 -1.294948,-1.47269 -1.294948,-2.53912 0,-0.50782 0.160815,-0.91408 0.482432,-1.21877 0.321623,-0.32162 0.770202,-0.48243 1.34573,-0.48243 0.118495,0.69403 0.279303,1.3542 0.482432,1.98051 0.220059,0.60938 0.541682,1.10875 0.964864,1.49807 0.423188,0.37241 0.998723,0.55861 1.726598,0.55861 v -6.27161 c -1.049499,-0.47397 -1.895868,-0.93948 -2.539115,-1.39652 -0.626311,-0.47396 -1.083351,-0.99025 -1.371122,-1.54886 -0.270835,-0.5586 -0.406258,-1.2103 -0.406258,-1.95512 0,-1.15106 0.389335,-2.0736 1.167993,-2.76763 0.778664,-0.69402 1.828162,-1.10874 3.148502,-1.24417 v -1.98051 h 1.269557 v 1.92973 c 1.523469,0.0338 2.606827,0.32162 3.250067,0.8633 0.643247,0.52475 0.964864,1.18492 0.964864,1.98051 0,0.54168 -0.1862,0.9564 -0.558605,1.24417 -0.355477,0.27084 -0.837908,0.40625 -1.447296,0.40625 0,-0.49089 -0.05922,-0.98178 -0.177738,-1.47268 -0.118488,-0.4909 -0.338546,-0.90562 -0.66017,-1.24417 -0.304694,-0.35547 -0.761734,-0.5586 -1.371122,-0.60939 v 5.91614 c 1.015646,0.44012 1.870484,0.88869 2.564506,1.34573 0.710952,0.45704 1.244166,0.97333 1.599642,1.54886 0.372406,0.55861 0.558606,1.24417 0.558606,2.05668 0,1.26956 -0.41472,2.25982 -1.244166,2.97077 -0.812517,0.71095 -1.972042,1.1426 -3.478588,1.29495 v 3.07233 h -1.269557 z m 0,-15.13312 c -0.677093,0.13542 -1.184916,0.44857 -1.523469,0.93947 -0.338546,0.47397 -0.507823,1.04104 -0.507823,1.70121 0,0.71095 0.169277,1.26109 0.507823,1.65042 0.355476,0.38934 0.863299,0.72788 1.523469,1.01565 z m 1.269557,13.93974 c 0.761735,-0.13542 1.345731,-0.44012 1.751989,-0.91409 0.423188,-0.49089 0.634779,-1.10028 0.634779,-1.82816 0,-0.67709 -0.177738,-1.22723 -0.533214,-1.65042 -0.355476,-0.44011 -0.973325,-0.85483 -1.853554,-1.24417 z"
               id="path7009"
               sodipodi:nodetypes="ccsccccccccsscccccsccscccccscccccccscccccsccc"
               style="font-size:40px;font-family:'Noto Serif';-inkscape-font-specification:'Noto Serif';white-space:pre;opacity:0.728693;stroke-width:1.23317" />
            <path
               id="path7011"
               style="opacity:0.34015;mix-blend-mode:normal;fill:#000000;fill-opacity:1;stroke:none;stroke-width:0.192;stroke-dasharray:none;filter:url(#filter4441)"
               d="m -64.805498,212.16198 v 42.58913 c 0.06966,-0.006 0.13976,-0.0147 0.209289,-0.02 5.571092,0.84933 5.843827,1.73001 9.102804,1.48252 2.519444,-0.19133 5.500243,-1.85541 8.333788,-2.86473 -3.764514,-17.19807 -3.517945,-23.32646 -1.009503,-42.35828 -2.833545,1.00932 -6.878537,2.36221 -8.757585,2.76852 -3.010912,0.65104 -4.410527,-1.86466 -7.669504,-1.61717 -0.06954,0.005 -0.139624,0.014 -0.209289,0.02 z"
               transform="matrix(1,0.29117338,0,0.99300756,-5.8335391,105.10212)"
               sodipodi:nodetypes="cccsccscsc" />
            <path
               id="path7013"
               style="opacity:0.34015;mix-blend-mode:normal;fill:#000000;fill-opacity:1;stroke:none;stroke-width:0.192;stroke-dasharray:none;filter:url(#filter5222)"
               d="m -16.517052,213.79235 v 42.58861 c 2.162523,0.18969 3.816821,0.39171 3.816821,0.39171 h 12.53153472 v -10.6469 -10.64741 -10.64689 -10.64741 H -12.700231 c 0,0 -1.654298,-0.20202 -3.816821,-0.39171 z"
               transform="matrix(0.98620762,0,0,0.98604416,-0.06560079,86.838501)" />
          </g>
          <g
             id="g7021"
             transform="translate(0,83.250232)">
            <path
               style="color:#000000;fill:#3b9b2a;stroke-width:0.192"
               d="m -96.290101,215.97082 c 0,0 7.932887,-2.48593 12.036126,-2.98756 4.146443,-0.50692 8.449878,-0.88696 12.531943,0 3.258982,0.70812 5.84397,3.44373 9.102952,4.15185 4.082065,0.88696 12.531943,0 12.531943,0 0,0 8.387552,0.52343 12.531943,0 4.369791,-0.55189 8.416377,-2.84272 12.798593,-3.28526 4.099995,-0.41404 12.347109,0.61756 12.347109,0.61756 H 0.1224516 v 10.64718 10.64718 10.64719 10.64718 H -12.409492 c 0,0 -8.247114,-1.0316 -12.347109,-0.61756 -4.382216,0.44254 -8.428802,2.73337 -12.798593,3.28526 -4.144391,0.52343 -12.531943,0 -12.531943,0 0,0 -8.449878,0.88696 -12.531943,0 -3.258982,-0.70812 -5.84397,-3.44373 -9.102952,-4.15185 -4.082065,-0.88696 -8.3855,-0.50692 -12.531943,0 -4.103239,0.50163 -12.036126,2.98756 -12.036126,2.98756 V 247.91237 237.26518 226.618 Z"
               id="path7017"
               sodipodi:nodetypes="caaacaacccccccaacaaaccccc" />
            <path
               style="color:#000000;fill:#000000"
               d="m -84.265625,212.88672 c -4.132272,0.50536 -12.121094,3.00976 -12.121094,3.00976 v 0.0742 10.64649 10.64843 10.64649 10.76953 c 0,0 8.004384,-2.50765 12.144532,-3.01367 4.13589,-0.5055 8.428386,-0.88491 12.5,0 3.2586,0.70821 5.842962,3.44413 9.101562,4.15234 4.088791,0.88864 12.552734,0 12.552734,0 0,0 8.396245,0.52402 12.544922,0 4.369225,-0.55188 8.415221,-2.84266 12.796875,-3.28515 4.095641,-0.41361 12.333985,0.61718 12.333985,0.61718 H 0.21875 V 246.4082 235.76172 225.11523 214.37109 h -12.625 c 0,0 -8.25533,-1.03169 -12.359375,-0.61718 -4.382903,0.44268 -8.430285,2.73328 -12.800781,3.28515 -4.140946,0.52289 -12.521485,0 -12.521485,0 0,0 -8.434934,0.88544 -12.509765,0 -3.259208,-0.70821 -5.844308,-3.44413 -9.103516,-4.15234 -4.092645,-0.88931 -8.407275,-0.50841 -12.564453,0 z m 0.02344,0.19336 c 4.135868,-0.50568 8.428307,-0.88455 12.5,0 3.258399,0.70787 5.843163,3.44252 9.101562,4.15039 4.08887,0.88828 12.552734,0 12.552734,0 0,0 8.396207,0.52372 12.544922,0 4.369104,-0.55154 8.415385,-2.84069 12.796875,-3.2832 4.095606,-0.41363 12.333985,0.61523 12.333985,0.61523 H 0.02734375 v 10.55273 10.64649 10.64648 10.55274 H -12.40625 c 0,0 -8.255265,-1.03333 -12.359375,-0.61914 -4.382938,0.44233 -8.430285,2.73328 -12.800781,3.28515 -4.140946,0.52289 -12.521485,0 -12.521485,0 0,0 -8.434855,0.88508 -12.509765,0 -3.259007,-0.70786 -5.844509,-3.44253 -9.103516,-4.15039 -4.092724,-0.88894 -8.407259,-0.50828 -12.564453,0 -4.066304,0.49716 -11.927734,2.96094 -11.927734,2.96094 v -10.52539 -10.64649 -10.64843 -10.57032 c 0,0 7.876877,-2.46864 11.951174,-2.96679 z"
               id="path7019"
               sodipodi:nodetypes="accccccaaacaacccccccaacaaaaaacaacccccccaacaaaccccca" />
          </g>
          <path
             style="opacity:0.728693;fill:#000000;fill-opacity:1;stroke:none;stroke-width:0.514;stroke-dasharray:none"
             d="m -9.0835321,331.24743 v 5.55315 h -5.7660559 v 1.46244 h 7.8434489 v -7.01559 z"
             id="path7023" />
          <path
             style="opacity:0.728693;fill:#000000;fill-opacity:1;stroke:none;stroke-width:0.514;stroke-dasharray:none"
             d="m -14.849588,299.76098 v 1.46244 h 5.7660559 v 5.55315 h 2.077393 v -7.01559 z"
             id="path7025" />
          <g
             id="g7031"
             transform="matrix(0.74794692,-0.09639668,0.07805656,0.92368408,-42.376076,93.848026)">
            <path
               style="opacity:0.728693;fill:#000000;fill-opacity:1;stroke:none;stroke-width:0.514;stroke-dasharray:none"
               d="m -89.65733,246.51305 v 7.01559 h 9.996805 v -1.46244 h -7.919413 v -5.55315 z"
               id="path7027" />
            <path
               style="opacity:0.728693;fill:#000000;fill-opacity:1;stroke:none;stroke-width:0.514;stroke-dasharray:none"
               d="m -89.65733,215.0266 v 7.01559 h 2.077392 v -5.55315 h 7.919413 v -1.46244 z"
               id="path7029" />
          </g>
          <path
             id="path7033"
             style="opacity:0.449663;fill:none;stroke:#000000;stroke-width:1.619"
             d="m -34.097146,321.67971 c -2e-6,8.83103 -7.158966,15.98999 -15.989994,15.98999 -8.831028,0 -16.485809,-10.14652 -16.485811,-18.97755 2e-6,-8.83103 7.654783,-13.00243 16.485811,-13.00243 8.831028,0 15.989992,7.15896 15.989994,15.98999 z"
             sodipodi:nodetypes="sssss" />
          <path
             d="m -50.582268,329.30975 c -1.591174,0 -2.826879,-0.30469 -3.707108,-0.91408 -0.863299,-0.62631 -1.294948,-1.47269 -1.294948,-2.53912 0,-0.50782 0.160815,-0.91408 0.482432,-1.21877 0.321623,-0.32162 0.770202,-0.48243 1.34573,-0.48243 0.118495,0.69403 0.279303,1.3542 0.482432,1.98051 0.220059,0.60938 0.541682,1.10875 0.964864,1.49807 0.423188,0.37241 0.998723,0.55861 1.726598,0.55861 v -6.27161 c -1.049499,-0.47397 -1.895868,-0.93948 -2.539115,-1.39652 -0.626311,-0.47396 -1.083351,-0.99025 -1.371122,-1.54886 -0.270835,-0.5586 -0.406258,-1.2103 -0.406258,-1.95512 0,-1.15106 0.389335,-2.0736 1.167993,-2.76763 0.778664,-0.69402 1.828162,-1.10874 3.148502,-1.24417 v -1.98051 h 1.269557 v 1.92973 c 1.523469,0.0338 2.606827,0.32162 3.250067,0.8633 0.643247,0.52475 0.964864,1.18492 0.964864,1.98051 0,0.54168 -0.1862,0.9564 -0.558605,1.24417 -0.355477,0.27084 -0.837908,0.40625 -1.447296,0.40625 0,-0.49089 -0.05922,-0.98178 -0.177738,-1.47268 -0.118488,-0.4909 -0.338546,-0.90562 -0.66017,-1.24417 -0.304694,-0.35547 -0.761734,-0.5586 -1.371122,-0.60939 v 5.91614 c 1.015646,0.44012 1.870484,0.88869 2.564506,1.34573 0.710952,0.45704 1.244166,0.97333 1.599642,1.54886 0.372406,0.55861 0.558606,1.24417 0.558606,2.05668 0,1.26956 -0.41472,2.25982 -1.244166,2.97077 -0.812517,0.71095 -1.972042,1.1426 -3.478588,1.29495 v 3.07233 h -1.269557 z m 0,-15.13312 c -0.677093,0.13542 -1.184916,0.44857 -1.523469,0.93947 -0.338546,0.47397 -0.507823,1.04104 -0.507823,1.70121 0,0.71095 0.169277,1.26109 0.507823,1.65042 0.355476,0.38934 0.863299,0.72788 1.523469,1.01565 z m 1.269557,13.93974 c 0.761735,-0.13542 1.345731,-0.44012 1.751989,-0.91409 0.423188,-0.49089 0.634779,-1.10028 0.634779,-1.82816 0,-0.67709 -0.177738,-1.22723 -0.533214,-1.65042 -0.355476,-0.44011 -0.973325,-0.85483 -1.853554,-1.24417 z"
             id="path7035"
             sodipodi:nodetypes="ccsccccccccsscccccsccscccccscccccccscccccsccc"
             style="font-size:40px;font-family:'Noto Serif';-inkscape-font-specification:'Noto Serif';white-space:pre;opacity:0.728693;stroke-width:1.23317" />
          <path
             id="path7037"
             style="opacity:0.34015;mix-blend-mode:normal;fill:#000000;fill-opacity:1;stroke:none;stroke-width:0.192;stroke-dasharray:none;filter:url(#filter4441)"
             d="m -64.805498,212.16198 v 42.58913 c 0.06966,-0.006 0.13976,-0.0147 0.209289,-0.02 5.571092,0.84933 5.843827,1.73001 9.102804,1.48252 2.519444,-0.19133 5.500243,-1.85541 8.333788,-2.86473 -3.764514,-17.19807 -3.517945,-23.32646 -1.009503,-42.35828 -2.833545,1.00932 -6.878537,2.36221 -8.757585,2.76852 -3.010912,0.65104 -4.410527,-1.86466 -7.669504,-1.61717 -0.06954,0.005 -0.139624,0.014 -0.209289,0.02 z"
             transform="matrix(1,0.29117338,0,0.99300756,-5.8335391,105.10212)"
             sodipodi:nodetypes="cccsccscsc" />
          <path
             id="path7039"
             style="opacity:0.34015;mix-blend-mode:normal;fill:#000000;fill-opacity:1;stroke:none;stroke-width:0.192;stroke-dasharray:none;filter:url(#filter5222)"
             d="m -16.517052,213.79235 v 42.58861 c 2.162523,0.18969 3.816821,0.39171 3.816821,0.39171 h 12.53153472 v -10.6469 -10.64741 -10.64689 -10.64741 H -12.700231 c 0,0 -1.654298,-0.20202 -3.816821,-0.39171 z"
             transform="matrix(0.98620762,0,0,0.98604416,-0.06560079,86.838501)" />
        </g>
      </g>
      <g
         id="g7213">
        <rect
           style="opacity:0.215646;mix-blend-mode:normal;fill:#000000;fill-opacity:1;stroke-width:1.31278;filter:url(#filter7125)"
           id="rect7123"
           width="109.45721"
           height="61.154709"
           x="30.558882"
           y="108.37234"
           ry="4.3140874"
           rx="3.8101153"
           transform="matrix(0.92614826,0,0,0.99692156,6.0405738,0.52726874)" />
        <rect
           style="fill:#630b86;fill-opacity:1;stroke-width:1.2866"
           id="rect1004"
           width="109.45721"
           height="58.740009"
           x="30.558882"
           y="110.78703"
           ry="4.1437454"
           rx="3.8101153" />
      </g>
    </g>
  </g>
</svg>
